<?xml version="1.0" encoding="utf-8"?>
<!-- Generator: Adobe Illustrator 21.0.1, SVG Export Plug-In . SVG Version: 6.00 Build 0)  -->
<svg version="1.1" id="Layer_1" xmlns="http://www.w3.org/2000/svg" xmlns:xlink="http://www.w3.org/1999/xlink" x="0px" y="0px"
	 viewBox="0 0 2400 1500" style="enable-background:new 0 0 2400 1500;" xml:space="preserve">
<style type="text/css">
	.st0{fill:url(#SVGID_1_);}
	.st1{fill:#71A0FF;}
</style>
<linearGradient id="SVGID_1_" gradientUnits="userSpaceOnUse" x1="1200" y1="1500" x2="1200" y2="-9.094947e-13">
	<stop  offset="0" style="stop-color:#FFFFFF"/>
	<stop  offset="8.257985e-02" style="stop-color:#FFF2D8"/>
	<stop  offset="0.1895" style="stop-color:#FFE4AD"/>
	<stop  offset="0.3019" style="stop-color:#FED888"/>
	<stop  offset="0.4185" style="stop-color:#FECE6A"/>
	<stop  offset="0.5408" style="stop-color:#FEC652"/>
	<stop  offset="0.6712" style="stop-color:#FEC042"/>
	<stop  offset="0.8153" style="stop-color:#FEBD38"/>
	<stop  offset="1" style="stop-color:#FEBC35"/>
</linearGradient>
<rect class="st0" width="2400" height="1500"/>
<g>
	<g>
		<path class="st1" d="M865.2,770.4h670.2c9.7,0,17.6-7.9,17.6-17.6V299.2c0-9.7-7.9-17.6-17.6-17.6H865.2
			c-9.7,0-17.6,7.9-17.6,17.6v453.6C847.6,762.5,855.5,770.4,865.2,770.4z M1128.8,443.4l142.8,82.6l-142.8,82.6V443.4z
			 M1133.9,1027.5c5.7-24.7,24.9-44.3,49.4-50.6l-4.2-53.1c0-5.2-4.2-9.3-9.3-9.3H1053c-5.2,0-9.3,4.2-9.3,9.3l-4.2,53.1
			c24.5,6.3,43.7,25.9,49.4,50.6H1133.9z M1200.2,1093.4c28,0,50.6-22.7,50.6-50.7c0-5.3-1.1-10.4-2.6-15.3c0,0,0,0,0-0.1
			c-6.5-20.4-25.4-35.2-48-35.2c-27.9,0-50.6,22.6-50.6,50.6C1149.6,1070.7,1172.3,1093.4,1200.2,1093.4z M1161.9,851.8
			c0-27.9-22.6-50.6-50.6-50.6c-27.9,0-50.6,22.6-50.6,50.6c0,28,22.7,50.7,50.6,50.7C1139.3,902.4,1161.9,879.8,1161.9,851.8z
			 M1311.6,1027.5c5.7-24.7,24.9-44.3,49.4-50.6l-4.2-53.1c0-5.2-4.2-9.3-9.3-9.3h-116.8c-5.2,0-9.3,4.2-9.3,9.3l-4.2,53.1
			c24.5,6.3,43.7,25.9,49.4,50.6H1311.6z M865.8,923.7l-4.2,53.1c24.5,6.3,43.7,25.9,49.4,50.6h45c5.7-24.7,24.9-44.3,49.4-50.6
			l-4.2-53.1c0-5.2-4.2-9.3-9.3-9.3H875.2C870,914.4,865.8,918.6,865.8,923.7z M1022.5,1093.4c27.9,0,50.6-22.7,50.6-50.7
			c0-5.3-1.1-10.4-2.6-15.3c0,0,0,0,0,0c-4.9-15.4-17-27.5-32.4-32.6c0,0,0,0-0.1,0c-4.9-1.6-10.1-2.7-15.5-2.7
			c-27.9,0-50.6,22.6-50.6,50.6C971.8,1070.7,994.5,1093.4,1022.5,1093.4z M1258.6,1105.3h-116.8c-5.2,0-9.3,4.2-9.3,9.3l-7.5,94.4
			c0,5.1,4.2,9.3,9.3,9.3h131.8c5.2,0,9.3-4.2,9.3-9.3l-7.5-94.4C1268,1109.5,1263.8,1105.3,1258.6,1105.3z M1505.2,1042.7
			c0,28,22.7,50.7,50.6,50.7c28,0,50.6-22.7,50.6-50.7c0-27.9-22.7-50.6-50.6-50.6C1527.9,992.2,1505.2,1014.8,1505.2,1042.7z
			 M984.2,851.8c0-27.9-22.6-50.6-50.6-50.6c-27.9,0-50.6,22.6-50.6,50.6c0,28,22.7,50.7,50.6,50.7
			C961.5,902.4,984.2,879.8,984.2,851.8z M1339.7,851.8c0-27.9-22.7-50.6-50.6-50.6c-27.9,0-50.6,22.6-50.6,50.6
			c0,28,22.7,50.7,50.6,50.7C1317.1,902.4,1339.7,879.8,1339.7,851.8z M1378,1093.4c27.9,0,50.6-22.7,50.6-50.7
			c0-5.3-1.1-10.4-2.6-15.3c0,0,0,0,0-0.1c-6.5-20.4-25.4-35.2-48-35.2c-27.9,0-50.6,22.6-50.6,50.6
			C1327.4,1070.7,1350.1,1093.4,1378,1093.4z M844.7,1093.4c27.9,0,50.6-22.7,50.6-50.7c0-5.3-1.1-10.4-2.6-15.3c0,0,0,0,0,0
			c-4.9-15.4-17-27.5-32.4-32.6c0,0,0,0-0.1,0c-4.9-1.6-10.1-2.7-15.5-2.7c-27.9,0-50.6,22.6-50.6,50.6
			C794.1,1070.7,816.7,1093.4,844.7,1093.4z M1080.8,1105.3H964.1c-5.2,0-9.3,4.2-9.3,9.3l-7.5,94.4c0,5.1,4.2,9.3,9.3,9.3h131.8
			c5.2,0,9.3-4.2,9.3-9.3l-7.5-94.4C1090.2,1109.5,1086,1105.3,1080.8,1105.3z M1436.4,1105.3h-116.8c-5.2,0-9.3,4.2-9.3,9.3
			l-7.5,94.4c0,5.1,4.2,9.3,9.3,9.3h131.8c5.2,0,9.3-4.2,9.3-9.3l-7.5-94.4C1445.8,1109.5,1441.6,1105.3,1436.4,1105.3z
			 M903.1,1105.3H786.3c-5.2,0-9.3,4.2-9.3,9.3l-7.5,94.4c0,5.1,4.2,9.3,9.3,9.3h131.8c5.2,0,9.3-4.2,9.3-9.3l-7.5-94.4
			C912.4,1109.5,908.2,1105.3,903.1,1105.3z M1489.4,1027.5c5.7-24.7,24.9-44.3,49.4-50.6l-4.2-53.1c0-5.2-4.2-9.3-9.3-9.3h-116.8
			c-5.2,0-9.3,4.2-9.3,9.3l-4.2,53.1c24.5,6.3,43.7,25.9,49.4,50.6H1489.4z M1623.5,1114.7c0-5.1-4.2-9.3-9.3-9.3h-116.8
			c-5.2,0-9.3,4.2-9.3,9.3l-7.5,94.4c0,5.1,4.2,9.3,9.3,9.3h131.8c5.2,0,9.3-4.2,9.3-9.3L1623.5,1114.7z M1517.5,851.8
			c0-27.9-22.7-50.6-50.6-50.6c-27.9,0-50.6,22.6-50.6,50.6c0,28,22.7,50.7,50.6,50.7C1494.9,902.4,1517.5,879.8,1517.5,851.8z"/>
	</g>
</g>
</svg>
